<svg width="433" height="140" viewBox="0 0 433 140" fill="none" xmlns="http://www.w3.org/2000/svg">
<path fill-rule="evenodd" clip-rule="evenodd" d="M348.801 139.825C371.349 139.825 390.704 126.057 399.033 106.411C404.818 103.592 408.578 104.068 411.622 104.454C413.264 104.662 414.697 104.844 416.129 104.468C417.756 102.387 417.563 95.2979 416.129 91.7005C415.851 91.0045 415.627 90.3822 415.421 89.8112C414.176 86.3533 413.608 84.7778 405.997 80.1272C404.777 79.382 403.773 78.5635 402.946 77.7135C399.484 50.6974 376.562 29.8254 348.801 29.8254C334.443 29.8254 321.379 35.4092 311.632 44.5388H269.558C266.269 44.5388 263.602 47.2051 263.602 50.4942C263.602 53.7833 266.269 56.4496 269.558 56.4496H302.022L302.022 56.4497H367.191C370.287 56.4497 372.796 58.9592 372.796 62.0548C372.796 65.1504 370.287 67.6599 367.191 67.6599L296.916 67.6599H238.585C235.5 67.6599 233 70.1603 233 73.2447C233 76.3291 235.5 78.8295 238.585 78.8295H294.525L294.521 78.8628H322.66C326.918 78.8628 330.37 82.315 330.37 86.5734C330.37 90.8319 326.918 94.2841 322.66 94.2841H287.26C282.64 94.3116 278.903 98.0652 278.903 102.692C278.903 107.335 282.668 111.099 287.311 111.099H300.825C310.08 128.213 328.094 139.825 348.801 139.825ZM374.019 90.7182C378.346 90.7182 381.854 87.2004 381.854 82.861C381.854 78.5217 378.346 75.0039 374.019 75.0039C369.693 75.0039 366.185 78.5217 366.185 82.861C366.185 87.2004 369.693 90.7182 374.019 90.7182Z" fill="#F8489D"/>
<path d="M37.5844 58.7344L38.5219 50.7656H82.3031V67.4531L75.225 68.3438C73.725 67.0625 72.5375 64.6875 71.6625 61.2188H56.7094V78.7031H70.0219C70.8344 76.7656 71.6312 75.4219 72.4125 74.6719L78.4594 75.3281V92.4375L72.4125 93.1875C71.6312 92.5938 70.8344 91.25 70.0219 89.1562H56.7094V105.094C60.9906 106.062 64.0844 107.375 65.9906 109.031L65.0531 117H38.5219L37.5844 109.031C38.4281 107.938 40.1937 106.875 42.8812 105.844V61.9688C40.225 61.0312 38.4594 59.9531 37.5844 58.7344ZM86.1 56.25L87.0375 48.8438C90.6625 48 94.0062 47.5781 97.0687 47.5781C100.131 47.5781 102.709 47.6719 104.803 47.8594V106.359C107.303 107.297 109.069 108.375 110.1 109.594L109.162 117H87.0375L86.1 109.594C86.975 108.375 88.7406 107.297 91.3969 106.359V59.4844C89.1156 58.7344 87.35 57.6562 86.1 56.25ZM160.162 91.8281C160.162 98.0781 159.1 103.109 156.975 106.922C154.85 110.703 151.959 113.453 148.303 115.172C144.678 116.859 140.584 117.703 136.022 117.703C128.897 117.703 123.412 115.812 119.569 112.031C115.756 108.219 113.85 101.828 113.85 92.8594C113.85 84.7969 115.959 78.6875 120.178 74.5312C124.428 70.3438 130.225 68.25 137.569 68.25C145.069 68.25 150.709 70.0938 154.491 73.7812C158.272 77.4688 160.162 83.4844 160.162 91.8281ZM127.819 92.625C127.819 102.844 130.897 107.953 137.053 107.953C140.178 107.953 142.491 106.797 143.991 104.484C145.491 102.141 146.241 98.3125 146.241 93C146.241 83.0312 143.1 78.0469 136.819 78.0469C133.756 78.0469 131.491 79.1562 130.022 81.375C128.553 83.5625 127.819 87.3125 127.819 92.625ZM187.538 78.0469C181.663 78.0469 178.725 83.0938 178.725 93.1875C178.725 98.3125 179.538 101.891 181.163 103.922C182.788 105.922 185.147 106.922 188.241 106.922C193.022 106.922 197.303 106.469 201.084 105.562L203.991 112.969C201.928 114.312 199.163 115.453 195.694 116.391C192.256 117.297 188.897 117.75 185.616 117.75C171.803 117.75 164.897 109.75 164.897 93.75C164.897 84.375 167.303 77.6562 172.116 73.5938C176.397 70.0312 181.616 68.25 187.772 68.25C193.928 68.25 199.038 69.3906 203.1 71.6719C203.131 71.9844 203.147 72.2969 203.147 72.6094C203.178 72.9219 203.194 73.2188 203.194 73.5C203.194 77.1562 202.366 80.6094 200.709 83.8594H192.272C191.366 82.2344 190.819 80.3281 190.631 78.1406C190.225 78.1094 189.756 78.0938 189.225 78.0938C188.725 78.0625 188.163 78.0469 187.538 78.0469ZM207.038 56.25L207.975 48.8438C211.6 48 214.944 47.5781 218.006 47.5781C221.069 47.5781 223.647 47.6719 225.741 47.8594V106.359C228.241 107.297 230.006 108.375 231.038 109.594L230.1 117H207.975L207.038 109.594C207.913 108.375 209.678 107.297 212.334 106.359V59.4844C210.053 58.7344 208.288 57.6562 207.038 56.25ZM259.913 109.594L258.975 117H243.6L226.631 92.1562L237.178 78.4219C236.022 77.7344 235.256 77.0625 234.881 76.4062L235.819 69H256.959L257.897 76.4062C256.491 78.1875 253.834 79.5938 249.928 80.625L240.741 91.1719L251.569 105.469C255.506 106.344 258.288 107.719 259.913 109.594Z" fill="#F8489D"/>
</svg>
