<svg width="128" height="71" viewBox="0 0 128 71" fill="none" xmlns="http://www.w3.org/2000/svg">
<path fill-rule="evenodd" clip-rule="evenodd" d="M128 35.5C128 55.1061 112.106 71 92.5 71C86.3452 71 80.5562 69.4337 75.51 66.678C72.6788 65.1319 69.5881 64 66.3623 64H46.5C42.3579 64 39 60.6421 39 56.5C39 55.649 39.1417 54.831 39.4029 54.0685C39.4171 54.0272 39.4563 54 39.5 54V54H76.5C79.5376 54 82 51.5376 82 48.5C82 45.4624 79.5376 43 76.5 43H55.5849H39.5H12.5C9.46244 43 7 40.5376 7 37.5C7 34.4624 9.46243 32 12.5 32H43.5666H73C75.7614 32 78 29.7614 78 27C78 24.2386 75.7614 22 73 22H62.7249C61.2544 22 60.354 20.3458 61.0367 19.0433V19.0433C66.9697 7.7232 78.8329 0 92.5 0C112.106 0 128 15.8939 128 35.5Z" fill="#F8479C"/>
</svg>
