<svg width="245" height="157" viewBox="0 0 245 157" fill="none" xmlns="http://www.w3.org/2000/svg">
<path fill-rule="evenodd" clip-rule="evenodd" d="M166.5 157C209.854 157 245 121.854 245 78.5C245 35.1456 209.854 0 166.5 0C152.244 0 138.875 3.8002 127.352 10.4429C121.842 13.619 124.506 21 130.866 21H176.5C181.194 21 185 24.8056 185 29.5C185 34.1944 181.194 38 176.5 38H99.2405H74C69.5817 38 66 41.5817 66 46C66 50.4183 69.5817 54 74 54H91.8988H132.5C137.194 54 141 57.8056 141 62.5C141 67.1944 137.194 71 132.5 71H12.9428C11.9336 71 10.9178 71.1898 10.0683 71.7347C7.01993 73.6904 5 77.1093 5 81C5 87.0751 9.92486 92 16 92H78H89.1564H146C152.627 92 158 97.3726 158 104C158 110.627 152.627 116 146 116H109.304C103.992 116 100.702 121.656 103.912 125.888C118.246 144.791 140.947 157 166.5 157Z" fill="#F8479C"/>
</svg>
