<svg width="61" height="60" viewBox="0 0 61 60" fill="none" xmlns="http://www.w3.org/2000/svg">
<circle cx="30.5151" cy="30" r="30" fill="white"/>
<path d="M31.0508 45C26.9305 45 22.9789 43.3632 20.0654 40.4497C17.1519 37.5362 15.5151 33.5847 15.5151 29.4644C15.5151 23.1698 19.1312 17.526 24.73 15.0892C24.9274 15.0032 25.146 14.9787 25.3575 15.0187C25.569 15.0588 25.7635 15.1616 25.9157 15.3138C26.0679 15.466 26.1708 15.6605 26.2108 15.872C26.2509 16.0835 26.2263 16.3022 26.1403 16.4995C25.4974 17.9754 25.1579 19.8658 25.1579 21.9644C25.1579 29.3492 31.1659 35.3572 38.5507 35.3572C40.6494 35.3572 42.5398 35.0177 44.0156 34.3748C44.213 34.2888 44.4316 34.2643 44.6431 34.3043C44.8546 34.3444 45.0491 34.4472 45.2013 34.5994C45.3535 34.7516 45.4564 34.9461 45.4964 35.1576C45.5365 35.3691 45.5119 35.5878 45.4259 35.7851C42.9891 41.3839 37.3454 45 31.0508 45Z" fill="#F8489D"/>
</svg>
