<svg width="67" height="67" viewBox="0 0 67 67" fill="none" xmlns="http://www.w3.org/2000/svg">
<circle cx="33.5" cy="33.5" r="30.5" fill="white" stroke="#F8489D" stroke-width="6"/>
<path fill-rule="evenodd" clip-rule="evenodd" d="M37.323 18.8599C41.7778 20.4344 44.9694 24.6829 44.9694 29.6768V46.8812H45.9252C47.5088 46.8812 48.7926 48.165 48.7926 49.7486C48.7926 51.3322 47.5088 52.616 45.9252 52.616H21.0744C19.4908 52.616 18.207 51.3322 18.207 49.7486C18.207 48.165 19.4908 46.8812 21.0744 46.8812H22.0302V29.6768C22.0302 24.6829 25.2219 20.4344 29.6766 18.8599V18.2072C29.6766 16.0957 31.3883 14.384 33.4998 14.384C35.6113 14.384 37.323 16.0957 37.323 18.2072V18.8599ZM41.1462 31.5884V37.3232H35.4114V31.5884H41.1462ZM41.1462 27.7652H35.4114V22.0304C38.2162 22.7523 40.4243 24.9604 41.1462 27.7652ZM25.8534 31.5884H31.5882V37.3232H25.8534V31.5884ZM25.8534 27.7652C26.5753 24.9604 28.7834 22.7523 31.5882 22.0304V27.7652H25.8534ZM41.1462 41.1464V46.8812H35.4114V41.1464H41.1462ZM25.8534 41.1464H31.5882V46.8812H25.8534V41.1464Z" fill="#F8489D"/>
</svg>
