<svg width="136" height="147" viewBox="0 0 136 147" fill="none" xmlns="http://www.w3.org/2000/svg">
<path d="M128.153 53.6132C128.143 53.5772 128.138 53.541 128.128 53.5049C128.119 53.4754 128.108 53.4481 128.099 53.4188C127.653 51.9163 126.842 50.5773 125.746 49.5352L87.9158 13.6307C86.8318 12.6079 85.5106 11.9079 84.0789 11.598C82.6472 11.288 81.1531 11.3784 79.7403 11.8605L30.3422 28.8825C28.8862 29.3852 27.5701 30.2889 26.5297 31.5004C26.5186 31.5134 26.5064 31.5244 26.4956 31.5375C26.4765 31.5604 26.4606 31.5852 26.4419 31.6085C25.4553 32.7876 24.7613 34.2077 24.4263 35.7327L12.8945 88.4963C12.5509 90.0756 12.6033 91.7107 13.0464 93.235C13.4896 94.7594 14.3076 96.1185 15.4173 97.1739L53.2474 133.078C54.2557 134.031 55.4722 134.703 56.7939 135.038C56.8754 135.062 56.9557 135.089 57.0399 135.108C57.0545 135.111 57.0691 135.115 57.0839 135.118C57.1967 135.143 57.3094 135.158 57.422 135.172C58.7508 135.404 60.1223 135.293 61.4229 134.849L110.821 117.827C112.271 117.325 113.582 116.427 114.621 115.224C115.66 114.021 116.39 112.555 116.737 110.976L128.269 58.2128C128.602 56.682 128.562 55.0979 128.153 53.6132ZM82.1312 20.5093L116.274 52.915L100.537 58.4283L66.0679 26.0446L82.1312 20.5093ZM72.2283 68.3467L37.6317 35.8432L56.4786 29.3487L90.991 61.7731L72.2283 68.3467ZM63.8134 124.552L74.6932 76.9696L93.608 70.3425L89.4406 89.4104C89.1821 90.593 89.3719 91.8219 89.9681 92.8267C90.5643 93.8316 91.5181 94.5301 92.6197 94.7686C93.7214 95.0071 94.8805 94.766 95.8423 94.0984C96.804 93.4308 97.4895 92.3914 97.748 91.2088L103.03 67.0415L118.85 61.4988L108.429 109.178L63.8134 124.552Z" fill="white"/>
<path d="M74.8201 93.0872C75.698 90.5933 74.9374 87.772 73.1263 85.942C74.3729 85.3903 75.4234 84.399 76.0819 82.5287C76.5209 81.2818 76.5678 79.1557 75.5877 76.9579C74.9997 75.6391 74.1921 74.9439 73.8001 74.0648C74.6311 73.697 74.8506 73.0735 75.4856 72.2662C76.9986 68.965 75.0384 64.5693 71.5653 63.4748C70.3422 62.9634 69.1192 62.4521 68.2882 62.8199C67.8961 61.9407 67.9196 60.8777 67.5276 59.9986C66.5475 57.8007 65.1284 56.8498 63.2939 56.0828C60.2362 54.8044 56.9122 56.2755 56.9122 56.2755L41.1228 63.2633C41.7813 61.393 42.8787 58.2757 41.5066 55.1987C41.1146 54.3195 40.111 53.1847 39.3035 52.4895C37.6884 51.099 36.0499 50.7715 34.1918 51.0675C29.4487 51.5877 25.3957 58.1183 24.9802 58.3022C24.7607 58.9257 16.1136 68.5421 13.5032 74.9605C10.4772 81.5629 9.72483 87.6854 15.2133 99.9933C20.8978 112.741 30.0941 115.513 44.6369 109.077L67.49 98.9628C67.9055 98.7789 73.0876 97.0118 74.8201 93.0872V93.0872ZM65.7012 68.1753C66.9477 67.6237 69.6603 65.8969 70.8364 68.5343C71.8165 70.7321 69.7389 71.6516 67.6614 72.571L51.041 79.9266C49.7945 80.4783 49.3555 81.7252 49.9435 83.0439C50.5316 84.3626 51.7546 84.874 53.0012 84.3223L68.7905 77.3345C68.7905 77.3345 70.4526 76.5989 71.4326 78.7968C72.6087 81.4342 68.6731 82.6496 68.6731 82.6496L54.9613 88.718C53.7148 89.2697 53.2758 90.5166 53.8639 91.8353C54.4519 93.154 55.675 93.6654 56.9215 93.1137L66.8937 88.7003C67.3092 88.5164 69.3868 87.597 70.3668 89.7948C71.3469 91.9927 67.1918 93.8316 67.1918 93.8316L42.6768 104.681C28.5495 110.933 23.0927 106.506 19.3684 98.1544C14.664 87.6048 14.9774 82.7292 17.9799 77.1898C20.3708 71.3948 28.8219 61.3389 29.2374 61.155C29.8958 59.2846 32.8514 55.8713 34.7094 55.5753C35.1249 55.3914 35.7365 55.6471 36.348 55.9028C36.544 56.3423 37.1555 56.598 37.1555 56.598C37.9396 58.3563 36.6461 61.034 36.0111 61.8414L33.4476 66.1338C32.8126 66.9411 32.9851 68.4437 33.7927 69.139C34.5768 70.8973 35.6038 70.9691 36.4348 70.6013L58.0413 61.039C59.7033 60.3034 62.1964 59.2001 63.1765 61.3979C63.9605 63.1562 62.91 64.1474 60.8325 65.0669L47.1207 71.1353C45.8741 71.6869 45.4352 72.9338 46.0232 74.2526C46.6113 75.5713 47.8343 76.0826 49.0808 75.5309L65.7012 68.1753Z" fill="#F8489D"/>
<rect width="28.4706" height="7.49828" rx="3.74914" transform="matrix(0.91657 -0.399875 0.401902 0.915683 44.4854 76.6263)" fill="white"/>
<rect width="28.4706" height="7.18947" rx="3.59473" transform="matrix(0.91657 -0.399875 0.401902 0.915683 37.6514 70.0433)" fill="white"/>
<rect width="16.7822" height="6.62302" rx="3.31151" transform="matrix(0.528019 -0.849233 0.850654 0.525726 24.731 67.5132)" fill="white"/>
<rect width="28.4706" height="7.18947" rx="3.59473" transform="matrix(0.91657 -0.399875 0.401902 0.915683 44.4854 87.0608)" fill="white"/>
<rect width="28.4706" height="6.45649" rx="3.22825" transform="matrix(0.91657 -0.399875 0.401902 0.915683 42.9961 97.2498)" fill="white"/>
<rect width="26.5663" height="2.31382" rx="1.15691" transform="matrix(0.91657 -0.399875 0.401902 0.915683 47.998 82.975)" fill="#F8489D"/>
<rect width="28.4706" height="2.31382" rx="1.15691" transform="matrix(0.91657 -0.399875 0.401902 0.915683 51.8105 91.5254)" fill="#F8489D"/>
<rect width="28.4706" height="2.31382" rx="1.15691" transform="matrix(0.91657 -0.399875 0.401902 0.915683 45.019 74.0031)" fill="#F8489D"/>
</svg>
