<svg width="56" height="50" viewBox="0 0 56 50" fill="none" xmlns="http://www.w3.org/2000/svg">
<path d="M28.0822 0.332886C21.442 0.332886 16.0594 5.71547 16.0594 12.3557C16.0594 17.7239 23.9172 27.5082 26.9276 31.0597C27.5374 31.7791 28.628 31.7791 29.2368 31.0597C32.2472 27.5082 40.105 17.7239 40.105 12.3557C40.105 5.71547 34.7224 0.332886 28.0822 0.332886V0.332886ZM28.0822 16.3633C25.8685 16.3633 24.0746 14.5694 24.0746 12.3557C24.0746 10.142 25.8685 8.34807 28.0822 8.34807C30.2959 8.34807 32.0898 10.142 32.0898 12.3557C32.0898 14.5694 30.2959 16.3633 28.0822 16.3633ZM2.52139 20.9386C1.95477 21.1652 1.46904 21.5564 1.12685 22.0617C0.784661 22.567 0.601698 23.1632 0.601562 23.7735L0.601563 47.6588C0.601563 48.7389 1.6922 49.4774 2.69505 49.0767L15.8686 43.0806V20.8403C15.0251 19.3155 14.3352 17.8308 13.8409 16.411L2.52139 20.9386ZM28.0822 34.6522C26.7397 34.6522 25.4696 34.0625 24.5985 33.0339C22.7225 30.8202 20.7273 28.2992 18.922 25.7134V43.0796L37.2424 49.1864V25.7143C35.4371 28.2992 33.4428 30.8211 31.566 33.0349C30.6948 34.0625 29.4248 34.6522 28.0822 34.6522V34.6522ZM53.4694 15.7106L40.2958 21.7067V49.1874L53.643 43.8487C54.2097 43.6222 54.6955 43.231 55.0377 42.7257C55.3799 42.2204 55.5628 41.6241 55.5629 41.0138V17.1285C55.5629 16.0484 54.4722 15.3098 53.4694 15.7106V15.7106Z" fill="#F73DA8"/>
</svg>
