<svg width="61" height="60" viewBox="0 0 61 60" fill="none" xmlns="http://www.w3.org/2000/svg">
<path d="M30.2534 0C13.6847 0 0.253418 13.4312 0.253418 30C0.253418 46.5687 13.6847 60 30.2534 60C46.8222 60 60.2534 46.5687 60.2534 30C60.2534 13.4312 46.8222 0 30.2534 0ZM18.4753 20.625H41.9753C43.2222 20.625 42.5784 22.225 41.9003 22.6344C41.2222 23.0406 31.8378 28.7187 31.4847 28.9281C31.1315 29.1375 30.6815 29.2406 30.2253 29.2406C29.7863 29.2496 29.3527 29.1418 28.969 28.9281L18.5503 22.6344C17.8722 22.225 17.2315 20.625 18.4753 20.625ZM42.7534 37.8125C42.7534 38.4688 41.9659 39.375 41.3659 39.375H19.1409C18.5409 39.375 17.7534 38.4688 17.7534 37.8125V26.4156C17.7534 26.1281 17.7472 25.7562 18.2909 26.0719L28.969 32.3688C29.3459 32.5991 29.7844 32.7082 30.2253 32.6812C30.6815 32.6812 31.0128 32.6469 31.4847 32.3688L42.2159 26.075C42.7597 25.7563 42.7534 26.1313 42.7534 26.4187V37.8125Z" fill="white"/>
</svg>
