<svg width="61" height="60" viewBox="0 0 61 60" fill="none" xmlns="http://www.w3.org/2000/svg">
<path d="M30.6226 51.6C23.1226 51.6 16.4926 47.76 12.6226 42C12.7126 36 24.6226 32.7 30.6226 32.7C36.6226 32.7 48.5326 36 48.6226 42C44.7526 47.76 38.1226 51.6 30.6226 51.6ZM30.6226 9C33.0095 9 35.2987 9.94821 36.9865 11.636C38.6743 13.3239 39.6226 15.6131 39.6226 18C39.6226 20.3869 38.6743 22.6761 36.9865 24.364C35.2987 26.0518 33.0095 27 30.6226 27C28.2356 27 25.9464 26.0518 24.2586 24.364C22.5708 22.6761 21.6226 20.3869 21.6226 18C21.6226 15.6131 22.5708 13.3239 24.2586 11.636C25.9464 9.94821 28.2356 9 30.6226 9V9ZM30.6226 0C26.6829 0 22.7818 0.775973 19.1421 2.28361C15.5023 3.79126 12.1951 6.00104 9.40936 8.7868C3.78326 14.4129 0.622559 22.0435 0.622559 30C0.622559 37.9565 3.78326 45.5871 9.40936 51.2132C12.1951 53.999 15.5023 56.2087 19.1421 57.7164C22.7818 59.224 26.6829 60 30.6226 60C38.5791 60 46.2097 56.8393 51.8358 51.2132C57.4619 45.5871 60.6226 37.9565 60.6226 30C60.6226 13.41 47.1226 0 30.6226 0Z" fill="white"/>
</svg>
