<svg width="61" height="60" viewBox="0 0 61 60" fill="none" xmlns="http://www.w3.org/2000/svg">
<circle cx="30.8843" cy="30" r="30" fill="white"/>
<path fill-rule="evenodd" clip-rule="evenodd" d="M28.6792 10H32.9246C33.0529 10.006 33.1656 10.0206 33.3239 10.0551C34.485 10.3079 34.9263 10.7248 36.0068 13.278L36.183 13.6992L36.862 15.3817L36.9178 15.4046L37.7927 15.0086C39.6982 14.1565 40.6804 13.7976 41.3408 13.6975L41.4777 13.6799L41.727 13.6664C42.3217 13.6664 42.9274 13.8771 43.3909 14.2438L43.6102 14.4399L46.3243 17.1428L46.513 17.3422C47.3655 18.2814 47.4451 18.9472 46.5021 21.3738L46.1883 22.1566L45.4487 23.9067L45.4627 23.9408L47.1571 24.5736L47.9739 24.8964C50.084 25.7591 50.5176 26.2189 50.7996 27.2751C50.8565 27.4881 50.8767 27.6332 50.8833 27.8133L50.8861 28.0089V31.8247C50.8861 32.0959 50.8768 32.2491 50.81 32.5172C50.5293 33.6447 50.1125 34.0741 47.5767 35.1452L47.1584 35.3199L45.4875 35.9942L45.4759 36.0223L46.0801 37.3422C47.5825 40.6815 47.6351 41.4136 46.6475 42.5133L46.524 42.6472L43.7379 45.4312C43.2393 45.9354 42.5286 46.213 41.8411 46.213C41.2571 46.213 40.34 45.9354 38.7768 45.3085L37.9398 44.9656L36.9865 44.5626L36.932 44.5851L36.4394 45.9062C35.2334 49.0836 34.8202 49.5995 33.5813 49.9192C33.3982 49.9665 33.2672 49.9866 33.1186 49.9948L32.8735 50H29.0553C28.817 50 28.6825 49.9929 28.4458 49.9415C27.2853 49.6899 26.8421 49.2721 25.7595 46.7174L25.583 46.296L24.9029 44.6126L24.8505 44.591L23.5798 45.1622C21.5473 46.0569 20.6668 46.3293 20.0393 46.3293C19.4516 46.3293 18.8532 46.1228 18.3772 45.7526L18.15 45.5541L15.4396 42.8472L15.1301 42.5096C14.3868 41.6351 14.3503 40.9569 15.2626 38.6227L15.738 37.4542L16.3184 36.09L16.3063 36.0607L14.9924 35.5711C12.3566 34.5709 11.5443 34.1102 11.1583 33.2691L11.0539 33.0045L10.9667 32.7115C10.9174 32.5242 10.8963 32.39 10.8878 32.2373L10.8823 31.9854V28.1673C10.8823 27.8939 10.8918 27.7393 10.9599 27.469C11.2137 26.4609 11.5739 26.0132 13.4715 25.1629L14.258 24.8232L16.2775 24.0066L16.2913 23.9729L15.5363 22.3069C14.2903 19.4769 14.1871 18.6153 14.9732 17.6529L15.0808 17.5266L15.3355 17.2566L18.0353 14.5629C18.53 14.0655 19.2375 13.7851 19.9262 13.7851C20.4187 13.7851 21.142 13.98 22.2995 14.4184L23.464 14.8801L24.7842 15.4334L24.8383 15.4109L25.3347 14.0811C26.5519 10.8808 26.9864 10.3456 28.2704 10.0582C28.4324 10.0219 28.5479 10.0065 28.6792 10ZM31.9303 13.9966H29.7002L29.3858 14.7337C29.2664 15.0268 29.1317 15.3691 28.9796 15.7664L28.2826 17.6308C28.1154 18.0722 27.7986 18.4378 27.3914 18.6665L27.1805 18.7691L25.5421 19.4509C25.1285 19.623 24.6716 19.6503 24.2444 19.5331L23.9922 19.4454L22.0539 18.6284L21.0069 18.2109L20.3032 17.9512L18.7226 19.5281L18.9086 19.998C18.9813 20.175 19.065 20.3728 19.1604 20.5933L19.4825 21.3239L20.2905 23.0902C20.4841 23.5109 20.5245 23.9828 20.4103 24.4258L20.3231 24.6875L19.6532 26.3155C19.4758 26.7465 19.1546 27.0997 18.7479 27.3175L18.5377 27.4149L16.3624 28.2893L15.2749 28.7554L14.8827 28.937V31.1976L15.352 31.401C15.5297 31.4754 15.7292 31.5564 15.9523 31.6448L16.6944 31.9328L18.4977 32.6024C18.9523 32.7663 19.3295 33.0881 19.5635 33.5049L19.6683 33.7209L20.3383 35.3441C20.5103 35.761 20.5355 36.2211 20.4145 36.6501L20.3244 36.9033L19.5468 38.7281L19.0591 39.9318L18.8215 40.571L20.4022 42.1497L20.8728 41.9637C21.0462 41.8931 21.2362 41.8138 21.4433 41.7255L22.8952 41.0852L23.9422 40.6032C24.3803 40.3939 24.8769 40.3522 25.3396 40.4807L25.5677 40.5592L27.2157 41.2396C27.6526 41.4199 28.009 41.7479 28.2254 42.1625L28.3217 42.3767L28.7319 43.4115L29.3155 44.8308L29.6533 45.6064L29.8364 45.9996H32.0731L32.3925 45.2466L32.8085 44.1843L33.4859 42.368C33.653 41.9227 33.9722 41.554 34.383 41.3244L34.5957 41.2216L36.2367 40.5444C36.6456 40.3756 37.0963 40.3481 37.5188 40.4616L37.7683 40.5467L39.3136 41.2021L40.4414 41.6614L41.0586 41.8995L41.4659 42.0469L43.0484 40.4672L42.7434 39.7146L42.286 38.6715L41.4764 36.9065C41.2821 36.4852 41.2416 36.0122 41.3563 35.5684L41.4438 35.3063L42.1126 33.6853C42.2891 33.2576 42.6073 32.9066 43.0102 32.6888L43.2184 32.5912L45.0608 31.8506L46.0013 31.4563L46.26 31.3439L46.8857 31.0575V28.7992L46.2583 28.5314L45.4086 28.1951L43.2636 27.3966C42.81 27.2316 42.434 26.9092 42.2012 26.4924L42.0971 26.2764L41.4282 24.6466C41.2576 24.2308 41.2329 23.7723 41.3534 23.3446L41.4432 23.0922L42.0642 21.6403C42.2258 21.2564 42.3666 20.9159 42.4881 20.6149L42.706 20.0646L42.9434 19.4215L41.3619 17.8466L40.891 18.0329C40.6305 18.1391 40.3321 18.2652 39.9935 18.4124L39.6415 18.5667L37.7956 19.4039C37.3757 19.5963 36.9049 19.6363 36.4629 19.5224L36.2019 19.4355L34.5549 18.7585C34.1238 18.5813 33.7705 18.2602 33.5525 17.8535L33.4551 17.6434L32.8728 16.1864L32.4508 15.1658L32.217 14.6229L31.9303 13.9966ZM30.8852 21.9974C35.2979 21.9974 38.885 25.5837 38.885 29.9964C38.885 34.4093 35.2976 37.9989 30.8852 37.9989C26.4714 37.9989 22.8835 34.4099 22.8835 29.9964C22.8835 25.5831 26.4712 21.9974 30.8852 21.9974ZM30.8852 25.9977C28.68 25.9977 26.8838 27.7929 26.8838 29.9964C26.8838 32.2008 28.681 33.9985 30.8852 33.9985C33.0877 33.9985 34.8846 32.2005 34.8846 29.9964C34.8846 27.7933 33.0887 25.9977 30.8852 25.9977Z" fill="#F8489D"/>
</svg>
