<svg width="97" height="56" viewBox="0 0 97 56" fill="none" xmlns="http://www.w3.org/2000/svg">
<path d="M88.3265 25.6081C84.8662 23.5 84.0027 21.2037 84.0696 20.437L77.3475 29.2428C78.4684 37.265 70.5 34.5 72 38C73.5 41.5 73.7524 40.9104 75.0767 39.7531C77.5921 39.6898 78.3937 42.6219 83.6969 39.5609C89.0001 36.5 91.2557 38.5867 93.4997 38C94.3306 36.9406 94.2319 33.3314 93.4997 31.5C92.5001 29 92.8543 28.3667 88.3265 25.6081Z" fill="white" stroke="white"/>
<path fill-rule="evenodd" clip-rule="evenodd" d="M87 28C87 43.464 74.5198 56 59.1245 56C48.5522 56 39.3545 50.0881 34.6293 41.3758H27.717C25.3531 41.3758 23.4368 39.4595 23.4368 37.0956C23.4368 34.7316 25.3531 32.8153 27.717 32.8153H31.6597L31.6597 32.8153H45.9568C48.032 32.8153 49.7143 31.133 49.7143 29.0578C49.7143 26.9826 48.032 25.3004 45.9568 25.3004H5.53296C5.38708 25.3004 5.24314 25.3087 5.10159 25.3249H3.03185C1.35741 25.3249 0 23.9675 0 22.293C0 20.6186 1.3574 19.2612 3.03185 19.2612H32.6335L68.522 19.2611C70.098 19.2611 71.3755 17.9836 71.3755 16.4076C71.3755 14.8317 70.098 13.5541 68.522 13.5541H35.2406L35.2406 13.5541H18.6564C16.9819 13.5541 15.6245 12.1967 15.6245 10.5223C15.6245 8.84782 16.9819 7.49042 18.6564 7.49042H40.1472C45.1234 2.84263 51.7935 0 59.1245 0C74.5198 0 87 12.536 87 28ZM72 31C74.2091 31 76 29.2091 76 27C76 24.7909 74.2091 23 72 23C69.7909 23 68 24.7909 68 27C68 29.2091 69.7909 31 72 31Z" fill="white"/>
</svg>
