<svg width="940" height="103" viewBox="0 0 940 103" fill="none" xmlns="http://www.w3.org/2000/svg">
<path fill-rule="evenodd" clip-rule="evenodd" d="M123.18 11.6369C122.278 10.9165 121.944 9.73365 122.089 8.58851L122.586 4.66662C122.796 3.00639 124.015 1.63909 125.66 1.33078C128.778 0.746327 131.701 0.454102 134.43 0.454102C136.33 0.454102 138.067 0.4856 139.642 0.548597C141.711 0.631378 143.292 2.36329 143.292 4.43417V65.0356C143.292 66.703 144.347 68.1562 145.833 68.9134C146.702 69.3565 147.452 69.8223 148.084 70.3108C148.97 70.9961 149.281 72.1463 149.14 73.2577L148.73 76.5023C148.477 78.5013 146.776 80 144.761 80H126.461C124.446 80 122.746 78.5013 122.493 76.5023L122.059 73.0725C121.932 72.0705 122.165 71.0245 122.942 70.3794C123.571 69.8575 124.363 69.3613 125.317 68.8908C126.838 68.141 127.931 66.6735 127.931 64.9776V16.9922C127.931 15.2645 126.792 13.7843 125.261 12.9828C124.494 12.581 123.8 12.1323 123.18 11.6369ZM0.649689 76.4674C0.886683 78.4818 2.59395 80 4.62229 80H29.1561C36.3534 80 42.5659 78.7109 47.7938 76.1328C53.0217 73.5189 57.05 69.4906 59.8788 64.0479C62.7075 58.6051 64.1219 51.6227 64.1219 43.1006C64.1219 34.5784 62.5464 27.4349 59.3954 21.6699C56.2801 15.8691 51.84 11.5007 46.0751 8.56445C40.3101 5.59245 33.4888 4.10645 25.6112 4.10645H4.62229C2.59395 4.10645 0.886683 5.62463 0.649688 7.63908L0.172288 11.697C0.055707 12.6879 0.290376 13.7192 1.05647 14.3585C1.6877 14.8852 2.48458 15.3858 3.44709 15.8602C4.96827 16.61 6.06041 18.0775 6.06041 19.7734V64.4673C6.06041 66.1235 5.02206 67.5743 3.53728 68.3081C2.58272 68.7799 1.79049 69.2572 1.16059 69.74C0.330928 70.3759 0.0594621 71.4504 0.1816 72.4886L0.649689 76.4674ZM21.9051 20.084C21.9051 17.8748 23.696 16.084 25.9051 16.084H26.8465C40.704 16.084 47.6327 25.2507 47.6327 43.584C47.6327 49.9577 46.8986 54.917 45.4305 58.4619C43.9982 62.0068 41.9572 64.4954 39.3075 65.9277C36.6577 67.3242 33.4888 68.0225 29.8006 68.0225H25.9051C23.696 68.0225 21.9051 66.2316 21.9051 64.0225V20.084ZM76.5829 73.8232C81.023 78.514 87.6473 80.8594 96.4559 80.8594C99.3205 80.8594 102.006 80.555 104.513 79.9463C107.055 79.3376 109.203 78.6393 110.958 77.8516C112.712 77.0638 113.876 76.4014 114.449 75.8643C114.536 75.7807 114.621 75.6989 114.704 75.619C115.743 74.6113 116.015 73.0908 115.507 71.7348L113.676 66.8419C113.348 65.9638 112.316 65.5822 111.495 66.0352V66.0352C110.457 66.6081 108.792 67.1989 106.5 67.8076C104.244 68.3805 101.881 68.667 99.41 68.667C94.8625 68.667 91.5324 67.7181 89.4198 65.8203C88.0434 64.5626 87.0602 62.7071 86.4701 60.2541C85.9307 58.0115 87.8241 56.0449 90.1306 56.0449H109.723C114.95 56.0449 117.564 53.3952 117.564 48.0957C117.564 42.0801 116.741 37.3356 115.094 33.8623C113.482 30.3532 111.101 27.8646 107.95 26.3965C104.835 24.8926 101.003 24.1406 96.4559 24.1406C89.6167 24.1406 83.6369 26.1816 78.5165 30.2637C75.8667 32.4121 73.772 35.4557 72.2323 39.3945C70.6926 43.2975 69.9227 47.9525 69.9227 53.3594C69.9227 62.3112 72.1428 69.1325 76.5829 73.8232ZM103.598 42.9509C103.58 44.8555 102.016 46.2707 100.113 46.3471L90.672 46.7259C88.2118 46.8246 86.1844 44.6739 86.8792 42.3119C87.424 40.4596 88.1456 39.0216 89.0438 37.998C90.5835 36.2435 92.8036 35.3662 95.704 35.3662C98.6044 35.3662 100.645 36.1898 101.827 37.8369C103.009 39.4841 103.599 41.0417 103.599 42.5098C103.599 42.6599 103.599 42.807 103.598 42.9509ZM157.94 24.4265C156.295 24.7348 155.076 26.1021 154.866 27.7623L154.37 31.6842C154.225 32.8293 154.558 34.0122 155.46 34.7326C156.08 35.228 156.774 35.6767 157.541 36.0785C159.072 36.88 160.211 38.3602 160.211 40.0879V64.9776C160.211 66.6735 159.119 68.141 157.597 68.8908C156.643 69.3613 155.851 69.8575 155.223 70.3794C154.446 71.0245 154.212 72.0705 154.339 73.0725L154.773 76.5023C155.026 78.5013 156.726 80 158.741 80H177.042C179.057 80 180.757 78.5013 181.01 76.5023L181.421 73.2577C181.561 72.1463 181.251 70.9961 180.364 70.3108C179.733 69.8223 178.982 69.3565 178.113 68.9134C176.627 68.1562 175.572 66.703 175.572 65.0356V27.4828C175.572 25.4544 174.053 23.7381 172.025 23.671C171.866 23.6658 171.706 23.6612 171.544 23.6572C170.076 23.5856 168.464 23.5498 166.71 23.5498C163.981 23.5498 161.058 23.842 157.94 24.4265ZM241.284 37.1614C240.223 37.5895 239.34 38.3862 238.894 39.4398L222.475 78.2046C221.848 79.6837 220.398 80.6445 218.791 80.6445H212.012C210.403 80.6445 208.95 79.68 208.326 78.1968L192.021 39.4725C191.569 38.3999 190.666 37.5928 189.581 37.1708C187.651 36.4197 186.143 35.5802 185.058 34.6524C184.272 33.9805 184.024 32.9133 184.153 31.8875L184.583 28.4977C184.836 26.4987 186.536 25 188.551 25H206.851C208.866 25 210.567 26.4987 210.82 28.4977L211.23 31.739C211.371 32.8523 211.059 34.0046 210.173 34.6928C210.114 34.7385 210.054 34.7841 209.993 34.8294C208.3 36.0883 207.28 38.2005 207.993 40.1861L212.686 53.252C213.331 55.0065 213.886 56.7432 214.351 58.4619C214.853 60.1449 215.247 61.8278 215.533 63.5107L215.637 64.2352C215.7 64.6824 216.083 65.0146 216.535 65.0146V65.0146C216.98 65.0146 217.358 64.693 217.436 64.2557C218.056 60.7992 219.033 57.2029 220.367 53.4668L224.851 40.888C225.582 38.8355 224.476 36.656 222.661 35.4506C222.288 35.2028 221.944 34.9457 221.631 34.6793C220.819 33.9895 220.55 32.892 220.683 31.835L221.106 28.4977C221.359 26.4987 223.059 25 225.074 25H242.247C244.262 25 245.962 26.4987 246.215 28.4977L246.636 31.8253C246.771 32.888 246.496 33.9903 245.676 34.6786C244.586 35.5921 243.123 36.4197 241.284 37.1614ZM257.052 73.8232C261.492 78.514 268.116 80.8594 276.925 80.8594C279.789 80.8594 282.475 80.555 284.981 79.9463C287.524 79.3376 289.672 78.6393 291.427 77.8516C293.181 77.0638 294.345 76.4014 294.918 75.8643C295.005 75.7807 295.09 75.699 295.172 75.6191C296.212 74.6113 296.483 73.0908 295.976 71.7347L294.145 66.8419C293.816 65.9638 292.785 65.5822 291.964 66.0352V66.0352C290.925 66.6081 289.26 67.1989 286.969 67.8076C284.713 68.3805 282.349 68.667 279.879 68.667C275.331 68.667 272.001 67.7181 269.889 65.8203C268.512 64.5626 267.529 62.7071 266.939 60.2541C266.4 58.0115 268.293 56.0449 270.599 56.0449H290.191C295.419 56.0449 298.033 53.3952 298.033 48.0957C298.033 42.0801 297.209 37.3356 295.562 33.8623C293.951 30.3532 291.57 27.8646 288.419 26.3965C285.304 24.8926 281.472 24.1406 276.925 24.1406C270.085 24.1406 264.106 26.1816 258.985 30.2637C256.335 32.4121 254.241 35.4557 252.701 39.3945C251.161 43.2975 250.391 47.9525 250.391 53.3594C250.391 62.3112 252.612 69.1325 257.052 73.8232ZM284.066 42.9509C284.049 44.8555 282.484 46.2707 280.581 46.3471L271.141 46.7259C268.681 46.8246 266.653 44.6739 267.348 42.3119C267.893 40.4596 268.614 39.0216 269.513 37.998C271.052 36.2435 273.272 35.3662 276.173 35.3662C279.073 35.3662 281.114 36.1898 282.296 37.8369C283.477 39.4841 284.068 41.0417 284.068 42.5098C284.068 42.6599 284.068 42.8069 284.066 42.9509ZM336.651 38.5352C332.127 38.5352 328.724 39.2461 326.442 40.6679C325.522 41.241 325.103 42.3162 325.103 43.4001V63.5845C325.103 65.5051 326.474 67.1361 328.339 67.5942C331.44 68.356 333.873 69.2539 335.639 70.2878C336.778 70.9546 337.246 72.2956 337.072 73.6035L336.683 76.527C336.419 78.515 334.723 80 332.718 80H308.273C306.258 80 304.557 78.5013 304.304 76.5023L303.87 73.0725C303.743 72.0705 303.977 71.0245 304.754 70.3794C305.383 69.8575 306.174 69.3613 307.129 68.8908C308.65 68.141 309.742 66.6735 309.742 64.9776V40.0879C309.742 38.3602 308.603 36.88 307.073 36.0786C306.305 35.6767 305.611 35.228 304.991 34.7326C304.089 34.0122 303.756 32.8294 303.901 31.6842L304.395 27.7777C304.606 26.1099 305.836 24.738 307.49 24.44C310.388 23.9182 313.108 23.6572 315.65 23.6572C317.262 23.6572 318.73 23.693 320.055 23.7646C320.72 23.7822 321.352 23.804 321.949 23.8301C322.939 23.8733 323.707 24.6955 323.707 25.686V25.686C323.707 27.4425 326.095 28.4074 327.554 27.4295C328.377 26.8785 329.261 26.373 330.206 25.9131C332.426 24.8747 334.646 24.266 336.866 24.0869C337.762 24.0146 338.568 23.9978 339.284 24.0364C340.886 24.1229 341.838 25.6121 341.802 27.2165L341.641 34.3184C341.587 36.7269 339.423 38.5558 337.014 38.5366C336.894 38.5356 336.773 38.5352 336.651 38.5352ZM361.197 92.7832V92.7832C360.324 92.7832 359.61 92.0988 359.523 91.2301C359.359 89.5847 359.078 88.1377 358.678 86.8892C358.235 85.5057 356.859 84.7266 355.406 84.7266H351.19C349.629 84.7266 348.185 85.6265 347.663 87.0975C346.624 90.0212 346.104 93.0444 346.104 96.167V97.2412V97.2412C346.171 97.9709 346.486 98.6631 347.046 99.1352C350.01 101.632 354.118 102.881 359.371 102.881C365.136 102.881 369.63 100.715 372.852 96.3818C374.679 94.0902 377.31 88.8444 380.748 80.6445L398.201 39.4398C398.647 38.3862 399.53 37.5895 400.591 37.1614C402.429 36.4197 403.893 35.5921 404.982 34.6786C405.803 33.9903 406.077 32.888 405.943 31.8253L405.522 28.4977C405.269 26.4987 403.568 25 401.553 25H384.381C382.366 25 380.666 26.4987 380.413 28.4977L379.99 31.835C379.856 32.892 380.126 33.9895 380.938 34.6794C381.251 34.9457 381.594 35.2028 381.968 35.4506C383.783 36.656 384.889 38.8355 384.157 40.888L379.674 53.4668C378.343 57.1932 377.367 60.7805 376.748 64.2287C376.666 64.6816 376.275 65.0146 375.815 65.0146V65.0146C375.371 65.0146 374.988 64.705 374.895 64.2715L374.732 63.5107C374.195 60.1807 373.282 56.7611 371.993 53.252L367.217 40.1926C366.491 38.2055 367.499 36.0784 369.221 34.8482C369.292 34.7971 369.362 34.7458 369.431 34.6943C370.346 34.0087 370.676 32.8372 370.532 31.7029L370.126 28.4977C369.873 26.4987 368.173 25 366.158 25H347.857C345.843 25 344.142 26.4987 343.889 28.4977L343.466 31.839C343.333 32.8936 343.602 33.9894 344.425 34.6622C345.492 35.5342 346.951 36.334 348.801 37.0614C349.874 37.4833 350.766 38.2849 351.216 39.3468L368.1 79.2452C368.397 79.9485 368.494 80.724 368.338 81.4716C367.736 84.3569 366.77 86.8921 365.44 89.0771C363.936 91.5479 362.522 92.7832 361.197 92.7832ZM497.569 26.3428C497.569 31.32 496.012 35.4915 492.896 38.8574C491.817 40.0241 490.642 41.0941 489.373 42.0672C486.701 44.1162 486.856 49.2051 488.438 52.1777V52.1777L495.677 66.0226C496.166 66.9595 497.012 67.6511 498.002 68.0225C499.845 68.7144 501.296 69.4858 502.355 70.337C503.187 71.0055 503.452 72.1089 503.311 73.1668L502.865 76.527C502.601 78.515 500.905 80 498.9 80H486.359C484.809 80 483.398 79.1045 482.739 77.7018L471.143 53.0371C470.033 50.3158 468.691 48.9551 467.115 48.9551H463.972C461.762 48.9551 459.972 50.7459 459.972 52.9551V63.3659C459.972 65.2397 461.28 66.8392 463.08 67.3587C465.564 68.0754 467.437 68.8697 468.701 69.7415C469.595 70.3576 469.887 71.4773 469.754 72.5542L469.267 76.4904C469.02 78.4947 467.317 80 465.298 80H442.689C440.66 80 438.953 78.4818 438.716 76.4674L438.248 72.4886C438.126 71.4504 438.397 70.3759 439.227 69.74C439.857 69.2572 440.649 68.7799 441.604 68.3081C443.088 67.5743 444.127 66.1235 444.127 64.4673V19.7734C444.127 18.0775 443.035 16.61 441.513 15.8602C440.551 15.3858 439.754 14.8852 439.123 14.3585C438.357 13.7192 438.122 12.6879 438.239 11.697L438.716 7.63908C438.953 5.62463 440.66 4.10645 442.689 4.10645H467.223C474.062 4.17806 479.719 4.91211 484.195 6.30859C488.671 7.66927 492.019 9.96094 494.239 13.1836C496.459 16.3704 497.569 20.7568 497.569 26.3428ZM466.417 16.084H463.972C461.762 16.084 459.972 17.8748 459.972 20.084V32.9775C459.972 35.1867 461.762 36.9775 463.972 36.9775H466.202C471.215 36.9775 474.939 36.2256 477.374 34.7217C479.845 33.2178 481.08 30.5143 481.08 26.6113C481.08 22.7441 479.827 20.0228 477.32 18.4473C474.849 16.8717 471.215 16.084 466.417 16.084ZM513.038 73.8232C517.478 78.514 524.102 80.8594 532.911 80.8594C535.776 80.8594 538.461 80.555 540.968 79.9463C543.51 79.3376 545.658 78.6393 547.413 77.8516C549.168 77.0638 550.331 76.4014 550.904 75.8643C550.991 75.7807 551.076 75.6989 551.159 75.619C552.198 74.6113 552.47 73.0908 551.962 71.7348L550.131 66.8419C549.803 65.9638 548.771 65.5822 547.95 66.0352V66.0352C546.912 66.6081 545.247 67.1989 542.955 67.8076C540.699 68.3805 538.336 68.667 535.865 68.667C531.318 68.667 527.987 67.7181 525.875 65.8203C524.498 64.5626 523.515 62.7071 522.925 60.254C522.386 58.0115 524.279 56.0449 526.586 56.0449H546.178C551.405 56.0449 554.019 53.3952 554.019 48.0957C554.019 42.0801 553.196 37.3356 551.549 33.8623C549.937 30.3532 547.556 27.8646 544.405 26.3965C541.29 24.8926 537.459 24.1406 532.911 24.1406C526.072 24.1406 520.092 26.1816 514.972 30.2637C512.322 32.4121 510.227 35.4557 508.687 39.3945C507.148 43.2975 506.378 47.9525 506.378 53.3594C506.378 62.3112 508.598 69.1325 513.038 73.8232ZM540.053 42.951C540.035 44.8556 538.471 46.2707 536.568 46.3471L527.127 46.7259C524.667 46.8246 522.639 44.6739 523.334 42.3119C523.879 40.4596 524.601 39.0216 525.499 37.998C527.039 36.2435 529.259 35.3662 532.159 35.3662C535.059 35.3662 537.1 36.1898 538.282 37.8369C539.464 39.4841 540.055 41.0417 540.055 42.5098C540.055 42.6599 540.054 42.807 540.053 42.951ZM611.66 58.0708C612.282 58.0708 613.131 58.274 612.953 58.8697C612.937 58.9233 612.914 58.9764 612.883 59.0279L612.277 60.0387C611.959 60.5686 611.672 61.1161 611.418 61.6786C611.328 61.8758 611.261 62.0821 611.207 62.2918C610.616 64.5857 609.815 66.6392 608.805 68.4521C606.37 72.7848 603.057 75.9359 598.868 77.9053C594.714 79.8389 590.024 80.8057 584.796 80.8057C576.632 80.8057 570.348 78.6393 565.943 74.3066C561.575 69.9381 559.39 62.6156 559.39 52.3389C559.39 43.1006 561.807 36.1003 566.641 31.3379C571.511 26.5397 578.153 24.1406 586.568 24.1406C595.162 24.1406 601.625 26.2533 605.958 30.4785C609.041 33.485 611.027 37.8422 611.916 43.55C611.931 43.6472 611.972 43.7396 611.999 43.8341V43.8341V43.8341C612.072 44.0888 612.307 44.2611 612.572 44.2611H626.79H633.133H669.022C670.598 44.2611 671.875 42.9836 671.875 41.4076C671.875 39.8317 670.598 38.5541 669.022 38.5541H626.79L626.785 38.5541H619.156C617.482 38.5541 616.124 37.1967 616.124 35.5223C616.124 33.8479 617.482 32.4904 619.156 32.4904H639.07C640.083 32.4904 641.051 32.0958 641.829 31.4466C646.657 27.4206 652.859 25 659.624 25C673.341 25 684.744 34.9512 687.067 48.0582C687.219 48.9123 687.578 49.7418 688.282 50.2481C688.454 50.3712 688.635 50.4915 688.826 50.6081C692.712 52.9757 693.002 53.7778 693.638 55.5382C693.743 55.8288 693.858 56.1457 693.999 56.5C694.543 57.8596 694.738 60.199 694.462 61.7475C694.308 62.6082 693.534 63.1548 692.661 63.0961C692.353 63.0754 692.034 63.0351 691.699 62.9927C690.401 62.8288 688.848 62.6327 686.651 63.4079C685.741 63.7293 685.073 64.4839 684.648 65.351C680.105 74.6212 670.606 81 659.624 81C649.901 81 641.34 75.9991 636.352 68.4183C635.546 67.1926 634.215 66.3758 632.748 66.3758H628.217C625.853 66.3758 623.937 64.4595 623.937 62.0955C623.937 59.7335 625.85 57.8184 628.211 57.8153L628.217 57.8153H632.16L646.289 57.8153C648.457 57.8153 650.214 56.0578 650.214 53.8899C650.214 51.7219 648.457 49.9644 646.289 49.9644H631.919C631.915 49.9644 631.911 49.9605 631.912 49.956V49.956C631.912 49.9514 631.909 49.9475 631.904 49.9475H613.353C613.351 49.9475 613.349 49.9478 613.347 49.9486V49.9486C613.344 49.9493 613.342 49.9496 613.34 49.9496H596.658C596.536 49.9496 596.435 49.8535 596.428 49.7312V49.7312C596.425 49.6728 596.398 49.6189 596.359 49.5759C596.143 49.3419 596.012 49.0296 596.012 48.6866V46.3001C596.012 46.0738 595.993 45.8456 595.952 45.6231C594.692 38.7852 591.277 35.3662 585.709 35.3662C582.2 35.3662 579.604 36.6374 577.921 39.1797C576.238 41.6862 575.396 45.9831 575.396 52.0703C575.396 63.7793 578.923 69.6338 585.977 69.6338C589.558 69.6338 592.208 68.3089 593.927 65.6592C594.505 64.7557 594.986 63.6597 595.37 62.3712C595.463 62.0567 595.5 61.7281 595.5 61.4V61.4V59C595.5 58.8536 595.531 58.7145 595.588 58.5892C595.797 58.1265 596.39 58.0708 596.898 58.0708H611.66ZM726.432 80.8594C731.224 80.8594 735.577 79.9627 739.49 78.1692C741.672 77.1694 744.723 78.6543 746.508 80.2581V80.2581C746.969 80.6718 747.604 80.8619 748.223 80.8512C753.394 80.7622 757.878 79.9408 761.675 78.3871C763.051 77.8237 763.868 76.4362 763.868 74.9487V71.1926C763.868 69.6498 762.985 68.2257 761.516 67.7526C761.33 67.6926 761.139 67.6335 760.944 67.5752C759.133 67.034 757.799 65.4344 757.799 63.5439V27.4828C757.799 25.4544 756.279 23.7381 754.252 23.671C754.093 23.6658 753.932 23.6612 753.77 23.6572C752.302 23.5856 750.691 23.5498 748.936 23.5498C746.183 23.5498 743.267 23.8415 740.19 24.4248C738.56 24.7337 737.352 26.0862 737.133 27.7305L736.609 31.6707C736.456 32.8236 736.789 34.0173 737.698 34.742C738.316 35.2337 739.005 35.6792 739.768 36.0785C741.299 36.88 742.437 38.3602 742.437 40.088V63.2753C742.437 64.5388 741.856 65.7556 740.759 66.3828C739.366 67.1791 737.849 67.7794 736.207 68.1836C733.915 68.7565 731.749 68.9355 729.708 68.7207C727.667 68.4701 726.163 67.8434 725.196 66.8408C723.979 65.5876 723.37 62.9736 723.37 58.999V27.4828C723.37 25.4544 721.85 23.7381 719.823 23.671C719.664 23.6658 719.504 23.6612 719.342 23.6572C717.874 23.5856 716.262 23.5498 714.508 23.5498C711.779 23.5498 708.856 23.842 705.738 24.4265C704.093 24.7348 702.874 26.1021 702.664 27.7623L702.167 31.6842C702.022 32.8293 702.356 34.0122 703.258 34.7326C703.878 35.2281 704.572 35.6767 705.339 36.0785C706.87 36.88 708.009 38.3602 708.009 40.088V62.5977C708.009 69.0788 709.351 73.7516 712.037 76.6162C714.758 79.445 719.557 80.8594 726.432 80.8594ZM768.463 34.7326C767.561 34.0122 767.228 32.8293 767.373 31.6842L767.867 27.7777C768.078 26.1099 769.307 24.738 770.962 24.44C773.859 23.9182 776.579 23.6572 779.122 23.6572C780.733 23.6572 782.201 23.693 783.526 23.7646C784.193 23.7822 784.825 23.804 785.423 23.8302C786.411 23.8734 787.179 24.6948 787.179 25.6844V25.6844C787.179 27.2055 788.91 28.1185 790.248 27.3945C794.256 25.2252 798.478 24.1406 802.916 24.1406C810.221 24.1406 815.52 26.2354 818.814 30.4248C822.144 34.5784 823.809 41.5251 823.809 51.2646C823.809 56.4925 823.04 61.0938 821.5 65.0684C819.96 69.0072 817.865 72.0866 815.216 74.3066C810.131 78.6751 804.115 80.8594 797.169 80.8594C795.902 80.8594 794.671 80.8109 793.477 80.7139C790.936 80.5075 788.575 82.4077 788.575 84.9573V86.3913C788.575 88.1982 789.797 89.7522 791.501 90.3536C793.306 90.9904 794.714 91.6722 795.725 92.3991C796.597 93.026 796.878 94.1355 796.743 95.2012L796.322 98.5238C796.069 100.523 794.369 102.021 792.354 102.021H771.744C769.729 102.021 768.029 100.523 767.776 98.5238L767.339 95.0708C767.214 94.0827 767.441 93.0522 768.209 92.418C768.848 91.8901 769.672 91.3743 770.68 90.8706C772.167 90.128 773.214 88.6764 773.214 87.0145V40.088C773.214 38.3602 772.075 36.88 770.544 36.0785C769.777 35.6767 769.083 35.2281 768.463 34.7326ZM796.095 69.6338C799.747 69.6338 802.629 68.0046 804.742 64.7461C806.89 61.4518 807.965 56.9401 807.965 51.2109C807.965 45.446 807.374 41.5072 806.192 39.3945C805.011 37.2819 802.88 36.2256 799.801 36.2256C795.933 36.2256 792.725 36.9568 790.176 38.4194C789.116 39.0274 788.575 40.2144 788.575 41.4362V65.6633C788.575 67.4932 789.815 69.1159 791.63 69.3553C793.037 69.541 794.525 69.6338 796.095 69.6338ZM836.056 73.8232C840.496 78.514 847.12 80.8594 855.929 80.8594C858.793 80.8594 861.479 80.555 863.985 79.9463C866.528 79.3376 868.676 78.6393 870.431 77.8516C872.185 77.0638 873.349 76.4014 873.922 75.8643C874.009 75.7807 874.094 75.6989 874.176 75.619C875.216 74.6113 875.487 73.0908 874.98 71.7348L873.149 66.8419C872.82 65.9638 871.789 65.5822 870.968 66.0352V66.0352C869.929 66.6081 868.264 67.1989 865.973 67.8076C863.717 68.3805 861.353 68.667 858.883 68.667C854.335 68.667 851.005 67.7181 848.892 65.8203C847.516 64.5626 846.533 62.7071 845.943 60.254C845.403 58.0115 847.297 56.0449 849.603 56.0449H869.195C874.423 56.0449 877.037 53.3952 877.037 48.0957C877.037 42.0801 876.213 37.3356 874.566 33.8623C872.955 30.3532 870.574 27.8646 867.423 26.3965C864.307 24.8926 860.476 24.1406 855.929 24.1406C849.089 24.1406 843.11 26.1816 837.989 30.2637C835.339 32.4121 833.245 35.4557 831.705 39.3945C830.165 43.2975 829.395 47.9525 829.395 53.3594C829.395 62.3112 831.615 69.1325 836.056 73.8232ZM863.07 42.951C863.053 44.8556 861.488 46.2707 859.585 46.3471L850.145 46.7259C847.684 46.8246 845.657 44.6739 846.352 42.3119C846.897 40.4596 847.618 39.0216 848.516 37.998C850.056 36.2435 852.276 35.3662 855.177 35.3662C858.077 35.3662 860.118 36.1898 861.3 37.8369C862.481 39.4841 863.072 41.0417 863.072 42.5098C863.072 42.6599 863.071 42.807 863.07 42.951ZM911.617 11.637C910.64 10.9293 910.265 9.69516 910.416 8.49801L910.9 4.67219C911.111 3.00921 912.334 1.64043 913.982 1.33776C917.191 0.748655 920.291 0.454102 923.282 0.454102C925.493 0.454102 927.521 0.490543 929.368 0.563426C931.453 0.64575 933.057 2.38598 933.057 4.47303V63.425C933.057 65.3687 934.47 66.9906 936.325 67.5705C936.483 67.62 936.64 67.6709 936.795 67.7233C938.253 68.2143 939.127 69.6456 939.127 71.1839V74.9487C939.127 76.4362 938.31 77.8239 936.933 78.3857C933.117 79.9424 928.577 80.7644 923.314 80.8516C922.693 80.8619 922.064 80.7335 921.578 80.3472C921.125 79.9877 920.673 79.5139 920.221 78.9258V78.9258C919.48 77.8741 917.691 77.2075 916.568 77.8329C915.456 78.4518 914.203 79.013 912.808 79.5166C910.23 80.4118 907.706 80.8594 905.235 80.8594C897.322 80.8594 891.575 78.7288 887.994 74.4678C884.449 70.1709 882.677 63.1348 882.677 53.3594C882.677 42.2949 885.398 34.5247 890.841 30.0488C895.639 26.11 901.493 24.1406 908.404 24.1406C909.822 24.1406 911.255 24.2201 912.704 24.3792C915.256 24.6592 917.642 22.7706 917.642 20.2038V17.3783C917.642 15.569 916.408 14.0295 914.736 13.3389C913.544 12.8464 912.504 12.2791 911.617 11.637ZM907.545 69.6338C911.094 69.6338 914.038 68.7619 916.374 67.0181C917.232 66.3776 917.642 65.3248 917.642 64.254V39.6169C917.642 37.7569 916.363 36.1216 914.523 35.8431C912.424 35.5252 910.277 35.3662 908.082 35.3662C904.716 35.3662 902.281 36.8343 900.777 39.7705C899.273 42.7067 898.521 47.1468 898.521 53.0908C898.521 58.999 899.255 63.2422 900.723 65.8203C902.192 68.3626 904.465 69.6338 907.545 69.6338ZM676.5 52C676.5 54.2091 674.709 56 672.5 56C670.291 56 668.5 54.2091 668.5 52C668.5 49.7909 670.291 48 672.5 48C674.709 48 676.5 49.7909 676.5 52Z" fill="#F8489D"/>
</svg>
